<?xml version="1.0" encoding="UTF-8" standalone="no"?>
<svg
   xmlns:dc="http://purl.org/dc/elements/1.1/"
   xmlns:cc="http://creativecommons.org/ns#"
   xmlns:rdf="http://www.w3.org/1999/02/22-rdf-syntax-ns#"
   xmlns:svg="http://www.w3.org/2000/svg"
   xmlns="http://www.w3.org/2000/svg"
   xmlns:sodipodi="http://sodipodi.sourceforge.net/DTD/sodipodi-0.dtd"
   xmlns:inkscape="http://www.inkscape.org/namespaces/inkscape"
   version="1.1"
   id="Layer_1"
   x="0px"
   y="0px"
   width="128"
   height="128"
   viewBox="0 0 128 128"
   enable-background="new 0 0 101.33 16"
   xml:space="preserve"
   inkscape:version="0.91 r"
   sodipodi:docname="cowbell-labs.svg"><metadata
     id="metadata41"><rdf:RDF><cc:Work
         rdf:about=""><dc:format>image/svg+xml</dc:format><dc:type
           rdf:resource="http://purl.org/dc/dcmitype/StillImage" /><dc:title></dc:title></cc:Work></rdf:RDF></metadata><defs
     id="defs39" /><sodipodi:namedview
     pagecolor="#ffffff"
     bordercolor="#666666"
     borderopacity="1"
     objecttolerance="10"
     gridtolerance="10"
     guidetolerance="10"
     inkscape:pageopacity="0"
     inkscape:pageshadow="2"
     inkscape:window-width="1301"
     inkscape:window-height="744"
     id="namedview37"
     showgrid="false"
     fit-margin-top="0"
     fit-margin-left="0"
     fit-margin-right="0"
     fit-margin-bottom="0"
     inkscape:zoom="11.72407"
     inkscape:cx="166.8889"
     inkscape:cy="126.44204"
     inkscape:window-x="65"
     inkscape:window-y="24"
     inkscape:window-maximized="1"
     inkscape:current-layer="g3" /><g
     id="g3"
     transform="translate(0,112)"><g
       id="g5"
       transform="matrix(8,0,0,8,0,-112)"><g
         id="rect2985"><path
           d="m 9.031,12.761 -2.073,0 0,-1.048 -2.984,0.011 0.087,-0.853 C 4.754,4.077 5.651,4.077 6.245,4.077 l 0.222,0 0,-0.839 3.056,0 0,0.839 0.222,0 c 0.608,0 1.4,0 2.2,6.788 l 0.095,0.858 -3.001,-0.011 0,1.049 z M 6.561,5.62 C 6.277,6.28 5.922,8.268 5.691,10.175 l 1.798,-0.009 0.505,10e-4 0.507,-10e-4 0,0.003 1.8,0.006 C 10.056,8.3 9.7,6.3 9.4,5.62 l -2.839,0 z"
           id="path8"
           inkscape:connector-curvature="0" /></g><g
         id="path2987"><path
           d="M 8,16 C 3.589,16 0,12.41 0,8 0,3.589 3.588,0 8,0 c 4.412,0 8,3.6 8,8 0,4.4 -3.6,8 -8,8 z M 8,1.5 C 4.439,1.5 1.5,4.4 1.5,8 1.5,11.6 4.4,14.5 8,14.457 11.6,14.414 14.457,11.6 14.5,8 14.457,4.4 11.6,1.5 8,1.542 Z"
           id="path11"
           inkscape:connector-curvature="0" /></g></g><g
       id="g13" /></g></svg>