<?xml version="1.0" encoding="UTF-8" standalone="no"?>
<!-- Created with Inkscape (http://www.inkscape.org/) -->

<svg
   xmlns:dc="http://purl.org/dc/elements/1.1/"
   xmlns:cc="http://creativecommons.org/ns#"
   xmlns:rdf="http://www.w3.org/1999/02/22-rdf-syntax-ns#"
   xmlns:svg="http://www.w3.org/2000/svg"
   xmlns="http://www.w3.org/2000/svg"
   xmlns:sodipodi="http://sodipodi.sourceforge.net/DTD/sodipodi-0.dtd"
   xmlns:inkscape="http://www.inkscape.org/namespaces/inkscape"
   width="1590.3175"
   height="364.34634"
   viewBox="0 0 1590.3174 364.34634"
   id="svg2"
   version="1.1"
   inkscape:version="0.91 r13725"
   sodipodi:docname="splittypie-brand.svg">
  <defs
     id="defs4" />
  <sodipodi:namedview
     id="base"
     pagecolor="#ffffff"
     bordercolor="#666666"
     borderopacity="1.0"
     inkscape:pageopacity="0.0"
     inkscape:pageshadow="2"
     inkscape:zoom="0.14399308"
     inkscape:cx="962.90051"
     inkscape:cy="-746.5529"
     inkscape:document-units="px"
     inkscape:current-layer="layer1"
     showgrid="false"
     inkscape:window-width="1301"
     inkscape:window-height="744"
     inkscape:window-x="65"
     inkscape:window-y="24"
     inkscape:window-maximized="1"
     fit-margin-top="0"
     fit-margin-left="0"
     fit-margin-right="0"
     fit-margin-bottom="0"
     showguides="false"
     inkscape:showpageshadow="true"
     showborder="true"
     units="px">
    <inkscape:grid
       type="xygrid"
       id="grid4188"
       originx="-145.89191"
       originy="-792.28527" />
  </sodipodi:namedview>
  <metadata
     id="metadata7">
    <rdf:RDF>
      <cc:Work
         rdf:about="">
        <dc:format>image/svg+xml</dc:format>
        <dc:type
           rdf:resource="http://purl.org/dc/dcmitype/StillImage" />
        <dc:title></dc:title>
      </cc:Work>
    </rdf:RDF>
  </metadata>
  <g
     inkscape:label="Layer 1"
     inkscape:groupmode="layer"
     id="layer1"
     transform="translate(-1479.0846,-58.27041)"
     style="display:inline">
    <text
       xml:space="preserve"
       style="font-style:normal;font-weight:normal;font-size:40px;line-height:125%;font-family:sans-serif;letter-spacing:0px;word-spacing:0px;fill:#000000;fill-opacity:1;stroke:none;stroke-width:10;stroke-linecap:butt;stroke-linejoin:miter;stroke-miterlimit:4;stroke-dasharray:none;stroke-opacity:1"
       x="1892.0973"
       y="334.75916"
       id="text3580"
       sodipodi:linespacing="125%"><tspan
         sodipodi:role="line"
         x="1892.0973"
         y="334.75916"
         id="tspan3582"><tspan
           x="1892.0973"
           y="334.75916"
           style="font-style:normal;font-variant:normal;font-weight:normal;font-stretch:normal;font-size:312.5px;line-height:125%;font-family:'Oleo Script';-inkscape-font-specification:'Oleo Script';fill:#1597b3;fill-opacity:1;stroke:none;stroke-width:10;stroke-miterlimit:4;stroke-dasharray:none;stroke-opacity:1"
           id="tspan3584">SplittyPie</tspan></tspan></text>
    <path
       style="fill:#ffff98;fill-opacity:1;stroke:#000000;stroke-width:1.57871521;stroke-miterlimit:4;stroke-dasharray:none;stroke-opacity:1"
       id="path4161-4-7-2-5"
       sodipodi:type="arc"
       sodipodi:cx="1708.7797"
       sodipodi:cy="205.03412"
       sodipodi:rx="156.28484"
       sodipodi:ry="157.0822"
       sodipodi:start="5.1712942"
       sodipodi:end="6.0355522"
       d="m 1778.0087,64.20396 a 156.28484,157.0822 0 0 1 82.2884,102.32775 l -151.5174,38.50241 z" />
    <path
       inkscape:connector-curvature="0"
       style="fill:#ffcd88;fill-opacity:1;stroke:#000000;stroke-width:1.57871521;stroke-miterlimit:4;stroke-dasharray:none;stroke-opacity:1"
       d="m 1711.7412,66.53554 c -14.6629,-5.371349 -28.5815,5.177799 -41.8457,5.825199 -17.9834,0.877734 -21.9966,-18.385251 -49.2668,-6.603979 -10.8478,4.686495 -12.467,19.060467 -26.763,22.165453 -11.2495,2.443306 -21.3257,-7.272541 -39.4208,3.802509 -17.8781,10.942248 -16.8772,35.530848 -18.7497,37.861868 -5.7387,7.14353 -26.2958,4.29608 -34.4921,23.20017 -8.7801,20.25054 3.6181,30.83211 0.428,41.21332 -6.3803,20.76241 -21.2741,22.15871 -21.7532,42.70528 -0.2676,11.47459 13.1913,23.76433 16.8952,34.41095 3.7039,10.6467 -4.9107,40.77545 1.1927,50.43585 12.2067,19.32079 21.8874,12.18555 33.2316,26.5794 11.3442,14.39386 -0.4343,25.94564 11.7004,36.62943 13.5437,11.92443 26.621,4.70118 43.4499,8.74482 8.4144,2.02186 13.7964,24.14274 36.1846,27.64094 24.808,3.87622 31.5703,-9.96714 45.1929,-9.74636 13.6225,0.2207 34.0468,9.15679 47.4482,5.48746 17.0382,-4.66495 18.7711,-19.55855 27.0032,-23.53817 8.232,-3.97963 22.3457,5.51626 36.6769,-2.71089 22.7424,-13.05574 12.4521,-37.38185 18.3572,-43.51074 11.8104,-12.25769 23.5527,-3.19019 36.1186,-24.22475 7.3737,-12.34318 -5.6288,-36.66013 -3.5196,-44.87814 2.1093,-8.21824 15.0704,-21.91091 15.833,-30.52319 1.5252,-17.2245 -10.0311,-32.26171 -28.8887,-41.38351 l -154.6781,36.50291 71.4481,-144.72313 c 0,0 0.2821,-23.279859 -21.7828,-31.3627 z"
       id="path4161-3-0-2-4"
       sodipodi:nodetypes="ssssscssssssssssssssssscccs" />
    <path
       inkscape:connector-curvature="0"
       style="fill:#ffff98;fill-opacity:1;stroke:#000000;stroke-width:1.57871521;stroke-miterlimit:4;stroke-dasharray:none;stroke-opacity:1"
       d="m 1671.4712,84.417725 a 156.28483,157.0822 0 0 0 -122.9194,58.393915 156.28483,157.0822 0 0 0 -0.9095,196.21863 156.28483,157.0822 0 0 0 190.2475,44.022 156.28483,157.0822 0 0 0 84.5445,-176.8654 l -152.2859,35.3069 69.0519,-140.91735 a 156.28483,157.0822 0 0 0 -67.7291,-16.158695 z"
       id="path4161-3-0-9" />
    <ellipse
       style="fill:#f80013;fill-opacity:1;stroke:#000000;stroke-width:1.57871521;stroke-miterlimit:4;stroke-dasharray:none;stroke-opacity:1"
       id="path4248-70-8-9"
       cx="1805.5424"
       cy="125.48091"
       rx="13.555318"
       ry="13.954002" />
    <ellipse
       style="fill:#f80013;fill-opacity:1;stroke:#000000;stroke-width:1.57871521;stroke-miterlimit:4;stroke-dasharray:none;stroke-opacity:1"
       id="path4248-2-9-3-2"
       cx="1789.5948"
       cy="247.07999"
       rx="13.555318"
       ry="13.954002" />
    <ellipse
       style="fill:#f80013;fill-opacity:1;stroke:#000000;stroke-width:1.57871521;stroke-miterlimit:4;stroke-dasharray:none;stroke-opacity:1"
       id="path4248-24-3-7-2"
       cx="1751.321"
       cy="325.22247"
       rx="13.555318"
       ry="13.954002" />
    <ellipse
       style="fill:#f80013;fill-opacity:1;stroke:#000000;stroke-width:1.57871521;stroke-miterlimit:4;stroke-dasharray:none;stroke-opacity:1"
       id="path4248-7-2-6-9"
       cx="1664.4077"
       cy="370.6727"
       rx="13.555318"
       ry="13.954002" />
    <ellipse
       style="fill:#f80013;fill-opacity:1;stroke:#000000;stroke-width:1.57871521;stroke-miterlimit:4;stroke-dasharray:none;stroke-opacity:1"
       id="path4248-1-1-4-4"
       cx="1662.0154"
       cy="114.71638"
       rx="13.555318"
       ry="13.954002" />
    <ellipse
       style="fill:#f80013;fill-opacity:1;stroke:#000000;stroke-width:1.57871521;stroke-miterlimit:4;stroke-dasharray:none;stroke-opacity:1"
       id="path4248-246-1-1-3"
       cx="1574.3048"
       cy="329.20935"
       rx="13.555318"
       ry="13.954002" />
    <ellipse
       style="fill:#f80013;fill-opacity:1;stroke:#000000;stroke-width:1.57871521;stroke-miterlimit:4;stroke-dasharray:none;stroke-opacity:1"
       id="path4248-3-0-9-5"
       cx="1535.2335"
       cy="244.68784"
       rx="13.555318"
       ry="13.954002" />
    <ellipse
       style="fill:#f80013;fill-opacity:1;stroke:#000000;stroke-width:1.57871521;stroke-miterlimit:4;stroke-dasharray:none;stroke-opacity:1"
       id="path4248-8-8-3-3"
       cx="1574.3046"
       cy="155.38222"
       rx="13.555318"
       ry="13.954002" />
    <path
       style="fill:#ffcd88;fill-opacity:1;fill-rule:evenodd;stroke:#000000;stroke-width:1.57871521;stroke-linecap:butt;stroke-linejoin:miter;stroke-miterlimit:4;stroke-dasharray:none;stroke-opacity:1"
       d="m 1782.6862,66.712956 c 15.8798,8.436275 32.514,23.492789 45.9519,40.313624 13.4378,16.82084 27.4916,46.40738 32.4542,58.58963 17.1031,-2.44032 14.7389,-29.05888 3.804,-41.68312 -9.0878,-10.49194 -18.6532,-12.44899 -26.7499,-22.56482 -8.3837,-10.474489 -0.9563,-22.744295 -15.0699,-34.284955 -14.6668,-11.992939 -57.0251,-9.207659 -40.3903,-0.370359 z"
       id="path4390-9"
       inkscape:connector-curvature="0"
       sodipodi:nodetypes="sscssss" />
  </g>
</svg>
