<?xml version="1.0" encoding="UTF-8" standalone="no"?>
<svg id="svg2" xmlns:rdf="http://www.w3.org/1999/02/22-rdf-syntax-ns#" xmlns="http://www.w3.org/2000/svg" height="364.35" width="1590.3" version="1.1" xmlns:cc="http://creativecommons.org/ns#" xmlns:dc="http://purl.org/dc/elements/1.1/" viewBox="0 0 1590.3174 364.34634">
 <g id="layer1" transform="translate(-1479.1 -58.27)">
  <g id="text3580" fill="#1597b3">
   <path id="path5103" d="m2027.1 273.51q0 30-22.812 47.5t-55.312 17.5q-21.875 0-36.25-10.938-14.062-11.25-15.625-19.062 3.4375-10.312 14.688-23.125 11.25-12.812 20.312-15.625 15.938 10.312 29.688 45.938 20.312-0.625 20.312-22.188 0-11.875-9.6875-29.062-9.375-17.5-20.625-32.5-11.25-15.312-20.938-34.062-9.375-19.062-9.375-33.75 0-23.75 19.062-37.5 19.375-13.75 43.438-13.75 24.062 0 37.188 10.312 13.438 10.312 13.438 23.438 0 13.125-10 26.875t-20 21.875l-10 8.125q3.75 5 9.0625 12.812 5.3125 7.8125 14.375 26.562t9.0625 30.625zm-24.062-102.5q4.375-4.0625 7.8125-9.6875 3.4375-5.9375 3.4375-12.188 0-6.5625-7.5-10.938-7.5-4.375-18.125-4.375-10.312 0-17.5 5-6.875 4.6875-6.875 11.562 0 6.5625 4.375 15.625 4.6875 8.75 9.0625 14.688l4.6875 5.9375q3.125-1.5625 9.6875-6.5625 6.875-5 10.938-9.0625z"/>
   <path id="path5105" d="m2037.1 404.76q-1.5625-3.75-1.5625-16.562t12.188-68.75q12.188-56.25 12.188-86.562 0-5.9375-2.8125-12.5-2.8125-6.875-5.9375-10.625l-2.8125-3.4375 0.3125-4.0625q14.688-4.6875 51.875-4.6875 3.4375 6.5625 4.375 18.438 24.062-19.688 40-19.688 16.25 0 25.938 13.438 10 13.438 10 39.375 0 45.312-16.562 67.5-16.562 21.875-41.875 21.875-13.125 0-21.875-3.75l-3.125-1.25 2.1875-12.188q2.8125 0.625 6.5625 0.625 8.125 0 14.062-7.5 6.25-7.5 9.375-19.062 6.25-23.125 6.25-42.812 0-28.125-11.562-28.125-9.0625 0-19.375 7.1875-1.25 21.875-12.812 76.562-11.562 54.688-11.562 88.125-16.875 6.875-43.438 8.4375z"/>
   <path id="path5107" d="m2219.1 338.51q-10.625 0-17.812-7.1875-6.875-7.1875-6.875-20 0-13.125 15.312-82.812 15.625-70 15.625-100.94l-1.875-13.75q24.375-8.4375 45.625-8.4375 3.125 4.375 3.125 15.312 0 25-15.938 96.875-15.625 71.562-15.625 83.438 0 11.562 2.8125 11.562l21.875-7.8125 5.625 10.938q-10.625 8.4375-25.938 15.625-15 7.1875-25.938 7.1875z"/>
   <path id="path5109" d="m2342.7 215.7q0 13.125-8.4375 45.312-8.4375 31.875-8.4375 41.875 0 9.6875 2.8125 9.6875 1.875 0 14.375-5.9375l3.75-1.875 5.3125 10.938q-2.8125 2.5-7.5 6.25t-17.5 10.312q-12.812 6.25-23.75 6.25t-17.188-6.5625q-6.25-6.875-6.25-18.125 0-11.562 7.8125-40.625 7.8125-29.375 7.8125-38.125 0-13.125-8.125-24.688l-2.8125-3.75 0.3125-4.0625q16.562-4.6875 53.75-4.6875 4.0625 4.6875 4.0625 17.812zm-35.625-51.875q-6.25-6.25-6.25-16.562t8.4375-18.125q8.75-7.8125 20-7.8125t17.5 6.25 6.25 16.562q0 10-9.0625 17.812-8.75 7.8125-19.688 7.8125t-17.188-5.9375z"/>
   <path id="path5111" d="m2460.7 200.07q-0.625 7.8125-5.3125 18.125-11.875-1.25-22.5-1.25h-5.625q-14.375 69.688-14.375 86.875 0 9.0625 3.75 9.0625 4.0625 0 20.938-7.8125l5.625 10.312q-27.812 23.125-51.562 23.125-10.938 0-18.125-6.875-6.875-6.875-6.875-18.125 0-11.562 2.5-25.938 2.8125-14.375 7.5-35 4.6875-20.938 6.875-33.75-11.562 0.9375-17.188 1.875-0.625-3.75-0.625-10 0-6.5625 0.9375-10.625h19.688q2.5-16.875 2.5-31.875l-0.3125-9.6875v-0.9375q24.375-8.4375 45.938-8.4375 1.25 6.25 1.25 15.625t-5.3125 35.312h30.312z"/>
   <path id="path5113" d="m2558.4 200.07q-0.625 7.8125-5.3125 18.125-11.875-1.25-22.5-1.25h-5.625q-14.375 69.688-14.375 86.875 0 9.0625 3.75 9.0625 4.0625 0 20.938-7.8125l5.625 10.312q-27.812 23.125-51.562 23.125-10.938 0-18.125-6.875-6.875-6.875-6.875-18.125 0-11.562 2.5-25.938 2.8125-14.375 7.5-35 4.6875-20.938 6.875-33.75-11.562 0.9375-17.188 1.875-0.625-3.75-0.625-10 0-6.5625 0.9375-10.625h19.688q2.5-16.875 2.5-31.875l-0.3125-9.6875v-0.9375q24.375-8.4375 45.938-8.4375 1.25 6.25 1.25 15.625t-5.3125 35.312h30.312z"/>
   <path id="path5115" d="m2595.2 368.51q-10.312 6.25-10.312 12.188 0 5.9375 6.5625 5.9375 6.875 0 15.312-6.5625 8.4375-6.25 14.062-20.625-15 2.8125-25.625 9.0625zm-15-32.5q-26.25 0-26.25-28.75 0-6.875 6.25-39.688 6.25-32.812 6.25-54.688 0-4.6875-1.25-8.75 16.875-6.5625 46.25-6.5625 1.5625 4.375 1.5625 15t-6.875 44.062q-6.875 33.438-6.875 43.125 0 9.6875 8.125 9.6875 9.6875 0 23.438-9.6875 1.5625-18.438 12.5-97.188 10.938-4.375 39.375-4.375h5.9375q-5.9375 23.438-11.562 67.5-5.625 44.062-9.0625 61.25-6.5625 34.375-24.375 55.938-17.5 21.875-45.938 21.875-11.25 0-20.625-5.9375-9.0625-5.9375-9.0625-15.312 0-12.5 15.312-22.812t41.25-15.938q2.8125-13.75 4.375-26.562-25.312 17.812-48.75 17.812z"/>
   <path id="path5117" d="m2776.8 248.2q-8.4375 0-12.812-0.3125-13.438 58.75-15 81.562-13.438 6.5625-40.938 6.5625-5.9375 0-8.125-0.3125 2.1875-18.438 18.75-92.5 16.562-74.375 16.562-93.75 0-3.75-4.375-9.6875-4.0625-6.25-8.4375-10.312l-4.0625-4.0625 0.9375-4.6875q52.5-7.8125 85-7.8125 64.375 0 64.375 52.5 0 35-23.125 59.062-23.125 23.75-68.75 23.75zm-5-20.938q24.062 0 36.25-18.125 12.5-18.125 12.5-48.438 0-12.5-4.6875-20.312-4.6875-8.125-13.75-8.125-5.9375 0-14.688 2.1875-5 32.812-18.75 92.812h3.125z"/>
   <path id="path5119" d="m2931.1 215.7q0 13.125-8.4375 45.312-8.4375 31.875-8.4375 41.875 0 9.6875 2.8125 9.6875 1.875 0 14.375-5.9375l3.75-1.875 5.3125 10.938q-2.8125 2.5-7.5 6.25t-17.5 10.312q-12.812 6.25-23.75 6.25t-17.188-6.5625q-6.25-6.875-6.25-18.125 0-11.562 7.8125-40.625 7.8125-29.375 7.8125-38.125 0-13.125-8.125-24.688l-2.8125-3.75 0.3125-4.0625q16.562-4.6875 53.75-4.6875 4.0625 4.6875 4.0625 17.812zm-35.625-51.875q-6.25-6.25-6.25-16.562t8.4375-18.125q8.75-7.8125 20-7.8125t17.5 6.25 6.25 16.562q0 10-9.0625 17.812-8.75 7.8125-19.688 7.8125t-17.188-5.9375z"/>
   <path id="path5121" d="m2950 280.7q0-39.062 23.438-61.562 23.75-22.812 53.75-22.812 18.438 0 30.312 9.0625 11.875 9.0625 11.875 24.375 0 15-7.8125 25.312-7.5 10.312-18.438 15.938-22.188 10.938-40.625 13.75l-7.5 0.9375q2.1875 29.375 24.062 29.375 7.5 0 15.938-3.75 8.4375-3.75 13.125-7.5l4.6875-3.75 7.5 10q-2.5 3.4375-10 9.0625t-14.062 9.375q-18.125 10-39.688 10-21.562 0-34.062-15.312t-12.5-42.5zm44.688-10.312q15.938-2.8125 25.312-13.438 9.375-10.625 9.375-27.5t-10-16.875q-11.875 0-18.438 20.312-6.25 20-6.25 37.5z"/>
  </g>
  <g stroke="#000" stroke-width="1.5787">
   <path id="path4161-4-7-2-5" fill="#ffff98" d="m1778 64.204a156.28 157.08 0 0 1 82.288 102.33l-151.52 38.502z"/>
   <path id="path4161-3-0-2-4" d="m1711.7 66.536c-14.663-5.3713-28.582 5.1778-41.846 5.8252-17.983 0.87773-21.997-18.385-49.267-6.604-10.848 4.6865-12.467 19.06-26.763 22.165-11.25 2.4433-21.326-7.2725-39.421 3.8025-17.878 10.942-16.877 35.531-18.75 37.862-5.7387 7.1435-26.296 4.2961-34.492 23.2-8.7801 20.251 3.6181 30.832 0.428 41.213-6.3803 20.762-21.274 22.159-21.753 42.705-0.2676 11.475 13.191 23.764 16.895 34.411 3.7039 10.647-4.9107 40.775 1.1927 50.436 12.207 19.321 21.887 12.186 33.232 26.579 11.344 14.394-0.4343 25.946 11.7 36.629 13.544 11.924 26.621 4.7012 43.45 8.7448 8.4144 2.0219 13.796 24.143 36.185 27.641 24.808 3.8762 31.57-9.9671 45.193-9.7464 13.622 0.2207 34.047 9.1568 47.448 5.4875 17.038-4.665 18.771-19.559 27.003-23.538 8.232-3.9796 22.346 5.5163 36.677-2.7109 22.742-13.056 12.452-37.382 18.357-43.511 11.81-12.258 23.553-3.1902 36.119-24.225 7.3737-12.343-5.6288-36.66-3.5196-44.878 2.1093-8.2182 15.07-21.911 15.833-30.523 1.5252-17.224-10.031-32.262-28.889-41.384l-154.68 36.503 71.448-144.72s0.2821-23.28-21.783-31.363z" fill="#ffcd88"/>
   <path id="path4161-3-0-9" d="m1671.5 84.418a156.28 157.08 0 0 0 -122.92 58.394 156.28 157.08 0 0 0 -0.9095 196.22 156.28 157.08 0 0 0 190.25 44.022 156.28 157.08 0 0 0 84.544 -176.87l-152.29 35.307 69.052-140.92a156.28 157.08 0 0 0 -67.729 -16.159z" fill="#ffff98"/>
  </g>
  <g stroke="#000" stroke-width="1.5787" fill="#f80013">
   <ellipse id="path4248-70-8-9" rx="13.555" ry="13.954" cy="125.48" cx="1805.5"/>
   <ellipse id="path4248-2-9-3-2" rx="13.555" ry="13.954" cy="247.08" cx="1789.6"/>
   <ellipse id="path4248-24-3-7-2" rx="13.555" ry="13.954" cy="325.22" cx="1751.3"/>
   <ellipse id="path4248-7-2-6-9" rx="13.555" ry="13.954" cy="370.67" cx="1664.4"/>
   <ellipse id="path4248-1-1-4-4" rx="13.555" ry="13.954" cy="114.72" cx="1662"/>
   <ellipse id="path4248-246-1-1-3" rx="13.555" ry="13.954" cy="329.21" cx="1574.3"/>
   <ellipse id="path4248-3-0-9-5" rx="13.555" ry="13.954" cy="244.69" cx="1535.2"/>
   <ellipse id="path4248-8-8-3-3" rx="13.555" ry="13.954" cy="155.38" cx="1574.3"/>
  </g>
  <path id="path4390-9" d="m1782.7 66.713c15.88 8.4363 32.514 23.493 45.952 40.314s27.492 46.407 32.454 58.59c17.103-2.4403 14.739-29.059 3.804-41.683-9.0878-10.492-18.653-12.449-26.75-22.565-8.3837-10.474-0.9563-22.744-15.07-34.285-14.667-11.993-57.025-9.2077-40.39-0.37036z" fill-rule="evenodd" stroke="#000" stroke-width="1.5787" fill="#ffcd88"/>
 </g>
</svg>
