<?xml version="1.0" encoding="utf-8"?>
<!-- Generated by IcoMoon.io -->
<!DOCTYPE svg PUBLIC "-//W3C//DTD SVG 1.1//EN" "http://www.w3.org/Graphics/SVG/1.1/DTD/svg11.dtd">
<svg version="1.1" xmlns="http://www.w3.org/2000/svg" xmlns:xlink="http://www.w3.org/1999/xlink" width="32" height="32" viewBox="0 0 32 32">
<path d="M15.857 21.143l2.071-2.071-2.714-2.714-2.071 2.071v1h1.714v1.714h1zM23.714 8.286q-0.286-0.286-0.589 0.018l-6.25 6.25q-0.304 0.304-0.018 0.589t0.589-0.018l6.25-6.25q0.304-0.304 0.018-0.589zM25.143 18.893v3.393q0 2.125-1.509 3.634t-3.634 1.509h-14.857q-2.125 0-3.634-1.509t-1.509-3.634v-14.857q0-2.125 1.509-3.634t3.634-1.509h14.857q1.125 0 2.089 0.446 0.268 0.125 0.321 0.411 0.054 0.304-0.161 0.518l-0.875 0.875q-0.25 0.25-0.571 0.143-0.411-0.107-0.804-0.107h-14.857q-1.179 0-2.018 0.839t-0.839 2.018v14.857q0 1.179 0.839 2.018t2.018 0.839h14.857q1.179 0 2.018-0.839t0.839-2.018v-2.25q0-0.232 0.161-0.393l1.143-1.143q0.268-0.268 0.625-0.125t0.357 0.518zM23.429 5.714l5.143 5.143-12 12h-5.143v-5.143zM31.357 8.071l-1.643 1.643-5.143-5.143 1.643-1.643q0.5-0.5 1.214-0.5t1.214 0.5l2.714 2.714q0.5 0.5 0.5 1.214t-0.5 1.214z"></path>
</svg>
