<?xml version="1.0" encoding="utf-8"?>
<!-- Generated by IcoMoon.io -->
<!DOCTYPE svg PUBLIC "-//W3C//DTD SVG 1.1//EN" "http://www.w3.org/Graphics/SVG/1.1/DTD/svg11.dtd">
<svg version="1.1" xmlns="http://www.w3.org/2000/svg" xmlns:xlink="http://www.w3.org/1999/xlink" width="27" height="32" viewBox="0 0 27 32">
<path d="M21.714 18.286q2.375 0 4.045 1.67t1.67 4.045-1.67 4.045-4.045 1.67-4.045-1.67-1.67-4.045q0-0.214 0.036-0.607l-6.429-3.214q-1.643 1.536-3.893 1.536-2.375 0-4.045-1.67t-1.67-4.045 1.67-4.045 4.045-1.67q2.25 0 3.893 1.536l6.429-3.214q-0.036-0.393-0.036-0.607 0-2.375 1.67-4.045t4.045-1.67 4.045 1.67 1.67 4.045-1.67 4.045-4.045 1.67q-2.25 0-3.893-1.536l-6.429 3.214q0.036 0.393 0.036 0.607t-0.036 0.607l6.429 3.214q1.643-1.536 3.893-1.536z"></path>
</svg>
