<?xml version="1.0" encoding="utf-8"?>
<!-- Generated by IcoMoon.io -->
<!DOCTYPE svg PUBLIC "-//W3C//DTD SVG 1.1//EN" "http://www.w3.org/Graphics/SVG/1.1/DTD/svg11.dtd">
<svg version="1.1" xmlns="http://www.w3.org/2000/svg" xmlns:xlink="http://www.w3.org/1999/xlink" width="25" height="32" viewBox="0 0 25 32">
<path d="M9.143 13.143v10.286q0 0.25-0.161 0.411t-0.411 0.161h-1.143q-0.25 0-0.411-0.161t-0.161-0.411v-10.286q0-0.25 0.161-0.411t0.411-0.161h1.143q0.25 0 0.411 0.161t0.161 0.411zM13.714 13.143v10.286q0 0.25-0.161 0.411t-0.411 0.161h-1.143q-0.25 0-0.411-0.161t-0.161-0.411v-10.286q0-0.25 0.161-0.411t0.411-0.161h1.143q0.25 0 0.411 0.161t0.161 0.411zM18.286 13.143v10.286q0 0.25-0.161 0.411t-0.411 0.161h-1.143q-0.25 0-0.411-0.161t-0.161-0.411v-10.286q0-0.25 0.161-0.411t0.411-0.161h1.143q0.25 0 0.411 0.161t0.161 0.411zM20.571 26.071v-16.929h-16v16.929q0 0.393 0.125 0.723t0.259 0.482 0.188 0.152h14.857q0.054 0 0.188-0.152t0.259-0.482 0.125-0.723zM8.571 6.857h8l-0.857-2.089q-0.125-0.161-0.304-0.196h-5.661q-0.179 0.036-0.304 0.196zM25.143 7.429v1.143q0 0.25-0.161 0.411t-0.411 0.161h-1.714v16.929q0 1.482-0.839 2.563t-2.018 1.080h-14.857q-1.179 0-2.018-1.045t-0.839-2.527v-17h-1.714q-0.25 0-0.411-0.161t-0.161-0.411v-1.143q0-0.25 0.161-0.411t0.411-0.161h5.518l1.25-2.982q0.268-0.661 0.964-1.125t1.411-0.464h5.714q0.714 0 1.411 0.464t0.964 1.125l1.25 2.982h5.518q0.25 0 0.411 0.161t0.161 0.411z"></path>
</svg>
