<?xml version="1.0" encoding="utf-8"?>
<!-- Generated by IcoMoon.io -->
<!DOCTYPE svg PUBLIC "-//W3C//DTD SVG 1.1//EN" "http://www.w3.org/Graphics/SVG/1.1/DTD/svg11.dtd">
<svg version="1.1" xmlns="http://www.w3.org/2000/svg" xmlns:xlink="http://www.w3.org/1999/xlink" width="27" height="32" viewBox="0 0 27 32">
<path d="M22.857 10.893q-1 0.446-2.161 0.607 1.214-0.714 1.661-2.089-1.161 0.679-2.393 0.911-1.089-1.179-2.732-1.179-1.554 0-2.652 1.098t-1.098 2.652q0 0.518 0.089 0.857-2.304-0.125-4.321-1.161t-3.429-2.768q-0.518 0.893-0.518 1.893 0 2.036 1.625 3.125-0.839-0.018-1.786-0.464v0.036q0 1.339 0.893 2.384t2.196 1.295q-0.518 0.143-0.911 0.143-0.232 0-0.696-0.071 0.375 1.125 1.33 1.857t2.17 0.75q-2.071 1.607-4.661 1.607-0.464 0-0.893-0.054 2.643 1.679 5.75 1.679 2 0 3.75-0.634t3-1.696 2.152-2.446 1.339-2.893 0.438-3.009q0-0.321-0.018-0.482 1.125-0.804 1.875-1.946zM27.429 7.429v17.143q0 2.125-1.509 3.634t-3.634 1.509h-17.143q-2.125 0-3.634-1.509t-1.509-3.634v-17.143q0-2.125 1.509-3.634t3.634-1.509h17.143q2.125 0 3.634 1.509t1.509 3.634z"></path>
</svg>
